<?xml version="1.0" encoding="utf-8"?>
<!-- Generator: Adobe Illustrator 18.1.1, SVG Export Plug-In . SVG Version: 6.00 Build 0)  -->
<svg version="1.1" id="Layer_1" xmlns="http://www.w3.org/2000/svg" xmlns:xlink="http://www.w3.org/1999/xlink" x="0px" y="0px"
	 viewBox="0 0 98.9 84.8" enable-background="new 0 0 98.9 84.8" xml:space="preserve">
<g>
	<g>
		<path fill="#FFFFFF" d="M49.4,70.6c-2.7,0-5.4-0.2-8-0.4c-7.2,6.4-15.8,10.9-25.4,13.4c-2,0.6-4.1,0.9-6.3,1.2
			c-1.2,0.1-2.4-0.8-2.6-2.1c0-0.1,0-0.1,0-0.1c-0.3-1.4,0.7-2.2,1.5-3.2c3.5-3.9,7.4-7.2,10-16.4C7.3,56.5,0,46.5,0,35.3
			C0,15.8,22.1,0,49.4,0s49.4,15.8,49.4,35.3S76.8,70.6,49.4,70.6z"/>
	</g>
</g>
</svg>
