<?xml version="1.0" encoding="utf-8"?>
<!-- Generator: Adobe Illustrator 18.1.1, SVG Export Plug-In . SVG Version: 6.00 Build 0)  -->
<svg version="1.1" id="Layer_1" xmlns="http://www.w3.org/2000/svg" xmlns:xlink="http://www.w3.org/1999/xlink" x="0px" y="0px"
	 viewBox="0 0 106.5 99.4" enable-background="new 0 0 106.5 99.4" xml:space="preserve">
<g>
	<g>
		<path fill="#FFFFFF" d="M106.5,21.3v7.1h-7.1c0,1.9-1.7,3.6-3.8,3.6H10.9c-2.1,0-3.8-1.6-3.8-3.6H0v-7.1L53.3,0L106.5,21.3z
			 M106.5,92.3v7.1H0v-7.1c0-1.9,1.7-3.6,3.8-3.6h98.8C104.8,88.8,106.5,90.4,106.5,92.3z M28.4,35.5v42.6h7.1V35.5h14.2v42.6h7.1
			V35.5H71v42.6h7.1V35.5h14.2v42.6h3.3c2.1,0,3.8,1.6,3.8,3.6v3.6H7.1v-3.6c0-1.9,1.7-3.6,3.8-3.6h3.3V35.5H28.4z"/>
	</g>
</g>
</svg>
