<?xml version="1.0" encoding="utf-8"?>
<!-- Generator: Adobe Illustrator 18.1.1, SVG Export Plug-In . SVG Version: 6.00 Build 0)  -->
<svg version="1.1" id="Layer_1" xmlns="http://www.w3.org/2000/svg" xmlns:xlink="http://www.w3.org/1999/xlink" x="0px" y="0px"
	 viewBox="0 0 77.9 85" enable-background="new 0 0 77.9 85" xml:space="preserve">
<g>
	<path fill="#FFFFFF" d="M63.2,85H14.8C5.9,85,0,79.7,0,70.7C0,58.2,2.9,39,19.2,39c1.9,0,8.7,7.7,19.8,7.7S56.9,39,58.8,39
		C75,39,77.9,58.2,77.9,70.7C77.9,79.7,72,85,63.2,85z M40.7,42.4c-13.1,1-24-9.8-22.9-22.9C18.6,9.2,26.9,0.9,37.2,0.1
		c13.1-1,24,9.8,22.9,22.9C59.4,33.3,51,41.6,40.7,42.4z"/>
</g>
</svg>
