<?xml version="1.0" encoding="utf-8"?>
<!-- Generator: Adobe Illustrator 18.1.1, SVG Export Plug-In . SVG Version: 6.00 Build 0)  -->
<svg version="1.1" id="Layer_1" xmlns="http://www.w3.org/2000/svg" xmlns:xlink="http://www.w3.org/1999/xlink" x="0px" y="0px"
	 viewBox="0 0 98.9 148.3" enable-background="new 0 0 98.9 148.3" xml:space="preserve">
<g>
	<path fill="#FFFFFF" d="M88.9,69.1c-6.7,7.3-15.5,17.7-16.2,28c2.8,1.6,4.5,4.7,4.5,7.9c0,2.3-0.9,4.5-2.4,6.2
		c1.5,1.6,2.4,3.9,2.4,6.2c0,3.2-1.6,6.1-4.3,7.8c0.8,1.4,1.3,3,1.3,4.5c0,6.3-4.9,9.3-10.5,9.3c-2.5,5.6-8.1,9.3-14.2,9.3
		s-11.7-3.7-14.2-9.3c-5.6,0-10.5-3-10.5-9.3c0-1.5,0.5-3.2,1.3-4.5c-2.7-1.7-4.3-4.6-4.3-7.8c0-2.3,0.9-4.5,2.4-6.2
		c-1.5-1.6-2.4-3.9-2.4-6.2c0-3.2,1.7-6.3,4.5-7.9c-0.8-10.3-9.6-20.7-16.2-28S0,53.2,0,43.3C0,17,25,0,49.4,0s49.4,17,49.4,43.3
		C98.9,53.2,95.6,61.8,88.9,69.1z M49.4,12.4c-17.5,0-37.1,11.6-37.1,30.9c0,6.2,2.5,12.7,6.6,17.4c1.8,2.1,4,4.2,5.9,6.4
		c6.9,8.2,12.6,17.9,13.6,28.8h22c1-10.9,6.8-20.6,13.6-28.8c1.9-2.2,4.1-4.2,5.9-6.4c4.1-4.7,6.6-11.2,6.6-17.4
		C86.5,23.9,66.9,12.4,49.4,12.4z M68,46.4c-1.6,0-3.1-1.4-3.1-3.1c0-6.7-10.3-9.3-15.5-9.3c-1.6,0-3.1-1.4-3.1-3.1
		c0-1.6,1.4-3.1,3.1-3.1c9,0,21.6,4.7,21.6,15.5C71.1,44.9,69.6,46.4,68,46.4z"/>
</g>
</svg>
