<?xml version="1.0" encoding="utf-8"?>
<!-- Generator: Adobe Illustrator 19.0.0, SVG Export Plug-In . SVG Version: 6.00 Build 0)  -->
<svg version="1.1" id="Layer_1" xmlns="http://www.w3.org/2000/svg" xmlns:xlink="http://www.w3.org/1999/xlink" x="0px" y="0px"
	 viewBox="0 0 251.5 66" style="enable-background:new 0 0 251.5 66;" xml:space="preserve">
<style type="text/css">
	.st0{fill-rule:evenodd;clip-rule:evenodd;fill:#1ABC9C;}
</style>
<g>
	<polygon id="XMLID_4_" class="st0" points="251.5,0 251.5,66 236.9,66 205.8,21.2 204,21.2 204,66 189.7,66 189.7,33.3 176,66 
		161.8,66 148,23.4 146.1,23.4 131.9,66 117,66 90.4,0 107,0 124.9,44.3 127.1,44.3 140.3,0 152.8,0 166.7,44.5 169.1,44.5 187,0 
		205.1,0 235,44.3 237.5,44.3 237.5,0 	"/>
	<path class="st0" d="M82.6,0H65.9l-7.2,18.2c-1.1-2.8-3-6-6.4-9C41.8-0.1,32,0.6,32,0.6H0v65.3h32c0,0,3.6,0.1,8.4-1.2L39.9,66
		l15.7-0.1l5.9-14.4h25.5L92.4,66l15.9,0L82.6,0z M29.5,57.5h-14V9.3h15.3c0,0,5.1,0.2,9.9,5c4.1,4.2,4.9,9.8,4.9,9.8L45.7,42
		c0,0-0.6,6.6-5.3,10.7C36.1,56.5,29.5,57.5,29.5,57.5z M64.4,42l9.9-24.4L84,42H64.4z"/>
</g>
</svg>
